<svg id="Capa_1" enable-background="new 0 0 512 512" height="512" viewBox="0 0 512 512" width="512" xmlns="http://www.w3.org/2000/svg"><g><g><path d="m250.321 167.114c44.072-124.599-54.363-128.946-54.363-128.946s-11.082-30.168-60.952-30.168-80.65 15.951-124.979 7.262c0 0-13.067 102.87 27.15 145.072z" fill="#26457d"/><path d="m55.177 135.67c-11.085 0-20.639 6.517-25.039 15.918 2.143 3.132 4.483 6.062 7.04 8.746l20.856.663v-25.181c-.939-.096-1.892-.146-2.857-.146z" fill="#21386b"/><path d="m250.321 167.114c1.192-3.369 2.26-6.634 3.248-9.83-2.728-12.362-13.765-21.614-26.973-21.614-.965 0-1.918.05-2.857.146v30.452z" fill="#21386b"/><path d="m223.739 131.931v55.019c0 45.658-37.094 82.671-82.852 82.671-45.758 0-82.852-37.013-82.852-82.671v-102.097s42.705 35.884 130.16 5.164c-.001 0 7.54 28.223 35.544 41.914z" fill="#f0c69e"/><path d="m140.887 251.621c-45.758 0-82.853-37.013-82.853-82.671v18c0 45.658 37.094 82.671 82.852 82.671 45.758 0 82.852-37.013 82.852-82.671v-18c.001 45.658-37.093 82.671-82.851 82.671z" fill="#e6ba94"/><path d="m504 362.058c-4.354-87.876-59.411-113.44-111.791-113.44s-107.437 25.564-111.791 113.44z" fill="#dc4955"/><path d="m282.133 344.058c-.818 5.69-1.402 11.679-1.715 18h223.582c-.313-6.321-.897-12.31-1.715-18z" fill="#d82f3c"/><path d="m426.601 362.058h-68.78v-25.724c0-18.972 15.38-34.352 34.352-34.352h.075c18.972 0 34.352 15.38 34.352 34.352v25.724z" fill="#26457d"/><path d="m499.031 403.937c.892-15.309.794-29.229-.172-41.879h-213.301c-.966 12.65-1.064 26.57-.172 41.879z" fill="#26457d"/><path d="m446.489 362.058h-108.555c-15.405 25.309-26.595 28.898-26.599 28.899v32.343c0 44.569 36.21 80.699 80.876 80.699 44.667 0 80.876-36.13 80.876-80.699v-32.343c.001 0-11.192-3.588-26.598-28.899z" fill="#f0c69e"/><path d="m392.212 486c-44.667 0-80.877-36.13-80.877-80.7v18c0 44.569 36.21 80.7 80.876 80.7 44.667 0 80.876-36.13 80.876-80.7v-18c.001 44.57-36.209 80.7-80.875 80.7z" fill="#e6ba94"/><path d="m375.908 181.511c-.505.408-19.379 15.519-52.358 20.638-5.248.814-9.225-5.033-6.996-10.211l12.916-30.005-.013.023c-22.133-16.092-36.118-39.771-36.118-66.173-.001-48.481 47.157-87.783 105.33-87.783s105.331 39.302 105.331 87.783-47.158 87.783-105.331 87.783c-7.822 0-15.426-.707-22.761-2.055z" fill="#f6e080"/><g><path d="m398.669 165.566c-7.072 0-13.967-.578-20.646-1.686-1.315-.218-2.655.071-3.739.846-5.255 3.755-23.011 15.12-50.735 19.423-1.244.193-2.412.002-3.447-.456l-3.549 8.245c-2.229 5.178 1.748 11.025 6.996 10.211 32.979-5.118 51.853-20.229 52.358-20.638 7.335 1.348 14.94 2.055 22.761 2.055 58.173 0 105.331-39.302 105.331-87.783 0-3.039-.186-6.041-.547-9-5.407 44.253-50.256 78.783-104.783 78.783z" fill="#eccd61"/></g><path d="m58.034 186.95v-33.133c-.939-.096-1.892-.146-2.857-.146-15.258 0-27.626 12.342-27.626 27.566s12.369 27.566 27.626 27.566c1.93 0 3.814-.199 5.632-.575-1.807-6.79-2.775-13.921-2.775-21.278z" fill="#e2ae84"/><path d="m226.596 153.67c-.965 0-1.918.05-2.857.146v33.133c0 7.357-.968 14.488-2.776 21.277 1.819.376 3.702.575 5.633.575 15.258 0 27.626-12.342 27.626-27.566 0-15.223-12.369-27.565-27.626-27.565z" fill="#e2ae84"/><path d="m55.177 190.802c-12.098 0-22.372-7.763-26.112-18.566-.977 2.821-1.514 5.847-1.514 9 0 15.224 12.369 27.566 27.626 27.566 1.93 0 3.814-.199 5.632-.575-1.503-5.646-2.416-11.531-2.684-17.583-.968.103-1.951.158-2.948.158z" fill="#d7a379"/><path d="m226.596 190.802c-.996 0-1.98-.055-2.949-.158-.268 6.052-1.181 11.937-2.684 17.583 1.819.376 3.702.575 5.633.575 15.258 0 27.626-12.342 27.626-27.566 0-3.153-.538-6.179-1.514-9-3.74 10.804-14.014 18.566-26.112 18.566z" fill="#d7a379"/><path d="m357.822 335.411h68.78v26.648h-68.78z" fill="#f6e080"/><path d="m357.822 344.058h68.78v18h-68.78z" fill="#eccd61"/><path d="m311.335 423.3v-32.343c-.917-.094-1.847-.143-2.788-.143-14.894 0-26.967 12.047-26.967 26.909 0 14.861 12.073 26.909 26.967 26.909 1.884 0 3.723-.194 5.498-.561-1.765-6.628-2.71-13.589-2.71-20.771z" fill="#e2ae84"/><path d="m475.877 390.815c-.942 0-1.872.049-2.789.143v32.342c0 7.182-.945 14.142-2.709 20.77 1.775.367 3.614.561 5.498.561 14.894 0 26.967-12.047 26.967-26.909 0-14.86-12.074-26.907-26.967-26.907z" fill="#e2ae84"/><path d="m308.546 426.632c-11.73 0-21.705-7.474-25.417-17.909-1.001 2.814-1.551 5.843-1.551 9 0 14.861 12.073 26.909 26.967 26.909 1.884 0 3.723-.194 5.498-.561-1.502-5.645-2.404-11.532-2.641-17.59-.938.098-1.891.151-2.856.151z" fill="#d7a379"/><path d="m475.877 426.632c-.965 0-1.918-.053-2.857-.152-.237 6.058-1.138 11.946-2.641 17.59 1.775.367 3.614.561 5.498.561 14.894 0 26.967-12.047 26.967-26.909 0-3.157-.55-6.186-1.551-9-3.711 10.435-13.687 17.91-25.416 17.91z" fill="#d7a379"/><path d="m136.092 483.286c.505.408 19.379 15.519 52.358 20.638 5.248.814 9.225-5.033 6.997-10.211l-12.916-30.005.013.023c22.133-16.092 36.118-39.771 36.118-66.173 0-48.481-47.158-87.783-105.331-87.783s-105.331 39.302-105.331 87.783 47.158 87.783 105.331 87.783c7.822 0 15.426-.707 22.761-2.055z" fill="#f6e080"/><g><path d="m191.898 485.468c-1.035.458-2.203.649-3.447.456-27.724-4.303-45.48-15.667-50.735-19.423-1.085-.775-2.424-1.064-3.739-.846-6.679 1.107-13.573 1.685-20.646 1.685-54.527 0-99.376-34.53-104.784-78.783-.362 2.959-.547 5.961-.547 9 0 48.481 47.158 87.783 105.331 87.783 7.822 0 15.426-.707 22.761-2.055.505.409 19.379 15.52 52.358 20.638 5.248.814 9.225-5.033 6.997-10.211z" fill="#eccd61"/></g></g><g><path d="m100.477 153.826c-4.15 0-7.514 3.364-7.514 7.514v18.568c0 4.15 3.364 7.514 7.514 7.514s7.514-3.364 7.514-7.514v-18.568c0-4.15-3.365-7.514-7.514-7.514z"/><path d="m180.919 153.826c-4.15 0-7.514 3.364-7.514 7.514v18.568c0 4.15 3.364 7.514 7.514 7.514s7.514-3.364 7.514-7.514v-18.568c0-4.15-3.364-7.514-7.514-7.514z"/><path d="m256.332 63.119c-16.798-24.907-44.697-30.991-55.608-32.445-5.517-9.502-22.665-30.674-65.918-30.674-18.929 0-34.973 2.22-48.525 4.301-4.102.63-6.917 4.465-6.287 8.568.63 4.102 4.465 6.925 8.567 6.286 13.004-1.997 28.374-4.127 46.245-4.127 43.563 0 53.634 24.342 54.012 25.301 1.045 2.844 3.695 4.783 6.721 4.916.315.014 31.743 1.677 48.333 26.277 12.643 18.746 13.719 45.98 3.243 81.058-4.596-3.313-10.019-5.544-15.898-6.322v-14.582c0-2.871-1.635-5.49-4.213-6.751-24.472-11.965-31.589-36.955-31.652-37.18-1.008-4.133-5.768-6.646-9.75-5.15-42.968 15.094-74.191 13.207-92.819 8.969-20.038-4.562-30.191-12.752-30.258-12.806-4.609-4.137-12.552-.438-12.348 5.753v61.747c-4.303.57-8.366 1.911-12.036 3.893-12.757-16.621-20.518-43.64-22.54-78.73-1.157-20.088-.134-38.098.681-47.9 16.851 2.317 31.235 1.284 42.26.025 4.123-.47 7.084-4.194 6.614-8.317-.47-4.124-4.189-7.081-8.317-6.615-11.684 1.332-27.449 2.4-45.8-1.197-4.129-.902-8.453 2.224-8.897 6.426-.532 4.186-12.102 99.357 24.593 146.101-4.451 5.884-7.096 13.203-7.096 21.128 0 19.372 15.786 35.131 35.191 35.131.091 0 .183-.006.274-.007 12.25 35.423 45.991 60.938 85.594 60.938s73.343-25.516 85.593-60.938c.091.001.183.007.274.007 19.404 0 35.191-15.76 35.191-35.131 0-5.268-1.175-10.264-3.266-14.754 15.013-44.089 14.296-78.8-2.158-103.199zm-221.665 117.952c0-9.486 6.632-17.439 15.512-19.541v25.266c0 4.777.377 9.468 1.096 14.047-9.426-1.682-16.608-9.898-16.608-19.772zm181.522 5.725c0 41.526-33.865 75.31-75.491 75.31s-75.492-33.784-75.492-75.31v-88.947c18.484 9.086 57.717 20.742 118.367 1.281 4.161 9.602 13.669 26.234 32.616 37.065zm13.932 14.046c.719-4.579 1.096-9.27 1.096-14.047v-25.265c8.879 2.102 15.512 10.054 15.512 19.541 0 9.874-7.183 18.09-16.608 19.771z"/><path d="m353.225 391.222c-4.15 0-7.514 3.364-7.514 7.514v18.125c0 4.15 3.364 7.514 7.514 7.514s7.514-3.364 7.514-7.514v-18.125c0-4.15-3.364-7.514-7.514-7.514z"/><path d="m431.749 391.222c-4.15 0-7.514 3.364-7.514 7.514v18.125c0 4.15 3.364 7.514 7.514 7.514s7.514-3.364 7.514-7.514v-18.125c0-4.15-3.364-7.514-7.514-7.514z"/><path d="m511.987 361.857c-2.105-42.478-15.782-74.522-40.651-95.241-20.064-16.716-47.33-25.552-78.852-25.552-21.082 0-40.112 3.87-56.56 11.505-3.764 1.746-5.4 6.215-3.653 9.978 1.746 3.764 6.214 5.4 9.979 3.652 14.452-6.707 31.354-10.108 50.234-10.108 19.499 0 47.338 3.829 69.232 22.07 19.998 16.661 31.658 42.391 34.715 76.553h-61.978v-18.258c0-23.12-18.81-41.929-42.005-41.929-23.12 0-41.93 18.809-41.93 41.929v18.258h-61.983c2.852-31.85 13.197-56.408 30.802-73.076 3.014-2.853 3.143-7.609.29-10.622-2.853-3.015-7.609-3.145-10.622-.291-21.937 20.771-34.058 51.432-36.025 91.132-.194 3.132 1.786 6.216 4.708 7.339-.503 10.478-.449 21.626.164 33.271-2.372 4.671-3.717 9.945-3.717 15.53 0 19.008 15.491 34.472 34.531 34.472.047 0 .094-.003.142-.003 12.018 34.583 44.987 59.481 83.679 59.481 38.69 0 71.66-24.898 83.678-59.481.047 0 .094.003.142.003 19.04 0 34.531-15.464 34.531-34.472 0-5.589-1.348-10.867-3.723-15.54.612-11.643.666-22.787.163-33.261 2.923-1.124 4.903-4.208 4.709-7.339zm-19.408 25.744c-4.852-2.599-10.392-4.077-16.272-4.077-.429 0-.861.017-1.292.033-2.083-1.237-7.143-4.849-13.99-13.815h31.236c.28 5.744.392 11.7.318 17.859zm-100.054-78.046c11.886 0 21.99 7.752 25.538 18.463h-51.151c3.551-10.711 13.666-18.463 25.613-18.463zm-26.977 33.49h53.879v11.669h-53.879zm-55.588 40.512c-.431-.016-.863-.033-1.292-.033-5.883 0-11.424 1.48-16.277 4.08-.074-6.159.038-12.116.318-17.862h31.242c-6.847 8.965-11.908 12.578-13.991 13.815zm-20.796 34.439c0-9.096 6.306-16.733 14.783-18.845v24.433c0 4.588.353 9.095 1.032 13.497-8.995-1.725-15.815-9.621-15.815-19.085zm176.835 5.588c0 40.437-32.977 73.335-73.512 73.335s-73.512-32.898-73.512-73.335v-27.966c5.727-3.691 13.918-11.299 23.296-25.876h100.432c9.869 15.345 18.159 22.576 23.296 25.927zm13.996 13.497c.679-4.402 1.032-8.909 1.032-13.497v-24.433c8.477 2.113 14.784 9.749 14.784 18.845-.001 9.464-6.821 17.36-15.816 19.085z"/><path d="m320.41 164.145-10.623 24.676c-4.711 9.872 4.108 22.678 15.063 20.625 27.8-4.315 46.365-15.477 53.164-20.16 6.866 1.084 13.895 1.633 20.942 1.633 62.33 0 113.04-42.823 113.04-95.46s-50.709-95.46-113.04-95.46c-62.33 0-113.039 42.823-113.039 95.46 0 26.013 12.495 50.747 34.493 68.686zm78.546-149.117c54.044 0 98.012 36.082 98.012 80.432 0 44.351-43.968 80.432-98.012 80.432-7.244 0-14.459-.652-21.445-1.935-2.151-.4-4.375.17-6.079 1.544-.175.141-17.59 13.943-47.688 18.905l12.786-29.702c1.47-3.416.208-7.333-2.854-9.288-20.808-15.277-32.731-37.106-32.731-59.955 0-44.352 43.967-80.433 98.011-80.433z"/><path d="m349.318 80.842h105.281c4.15 0 7.514-3.364 7.514-7.514s-3.364-7.514-7.514-7.514h-105.281c-4.15 0-7.514 3.364-7.514 7.514s3.364 7.514 7.514 7.514z"/><path d="m349.318 126.225h60.617c4.15 0 7.514-3.364 7.514-7.514s-3.364-7.514-7.514-7.514h-60.617c-4.15 0-7.514 3.364-7.514 7.514s3.364 7.514 7.514 7.514z"/><g><path d="m226.079 397.794c0-52.636-50.709-95.46-113.039-95.46-62.331 0-113.04 42.824-113.04 95.46 0 18.434 6.218 36.32 17.983 51.724 2.52 3.298 7.235 3.929 10.532 1.41 3.298-2.518 3.93-7.234 1.411-10.532-9.747-12.761-14.898-27.492-14.898-42.601 0-44.35 43.968-80.432 98.012-80.432s98.012 36.081 98.012 80.432c0 22.798-11.87 44.582-32.594 59.855-3.165 1.923-4.485 5.919-2.992 9.389l12.786 29.702c-30.101-4.96-47.514-18.764-47.688-18.904-1.704-1.378-3.925-1.937-6.079-1.546-6.988 1.285-14.203 1.935-21.446 1.935-22.997 0-45.357-6.685-62.961-18.825-3.417-2.354-8.095-1.494-10.451 1.921-2.356 3.416-1.496 8.096 1.92 10.452 20.088 13.852 45.478 21.48 71.492 21.48 7.045 0 14.074-.549 20.941-1.633 6.798 4.683 25.362 15.847 53.164 20.161 10.957 2.053 19.775-10.755 15.064-20.626l-10.623-24.676c21.999-17.941 34.494-42.675 34.494-68.686z"/><path d="m63.4 383.176h105.281c4.15 0 7.514-3.364 7.514-7.514s-3.364-7.514-7.514-7.514h-105.281c-4.15 0-7.514 3.364-7.514 7.514s3.364 7.514 7.514 7.514z"/><path d="m63.4 428.559h60.618c4.15 0 7.514-3.364 7.514-7.514s-3.364-7.514-7.514-7.514h-60.618c-4.15 0-7.514 3.363-7.514 7.514 0 4.15 3.364 7.514 7.514 7.514z"/></g><path d="m151.81 209.932c-.259.529-2.774 5.174-11.3 5.174s-11.041-4.644-11.3-5.174c-4.023-9.677-18.082-3.733-13.832 5.94 2.19 5.307 9.948 14.29 25.132 14.29s22.942-8.983 25.132-14.29c4.25-9.673-9.809-15.617-13.832-5.94z"/><path d="m403.636 446.538c-.001 0 0 0 0 0-.249.506-2.668 4.949-10.87 4.949s-10.621-4.443-10.87-4.95c0 .001.001 0 0 .001-4.344-8.565-17.039-3.195-13.829 5.945.073.161.144.324.222.482 2.407 5.264 10.002 13.579 24.477 13.579s22.07-8.315 24.477-13.579c.078-.158.148-.322.222-.482 3.21-9.14-9.485-14.509-13.829-5.945z"/></g></g></svg>