<?xml version="1.0" encoding="iso-8859-1"?>
<!-- Generator: Adobe Illustrator 19.0.0, SVG Export Plug-In . SVG Version: 6.00 Build 0)  -->
<svg version="1.1" id="Capa_1" xmlns="http://www.w3.org/2000/svg" xmlns:xlink="http://www.w3.org/1999/xlink" x="0px" y="0px"
	 viewBox="0 0 512 512" style="enable-background:new 0 0 512 512;" xml:space="preserve">
<path style="fill:#C3C8F6;" d="M346,512H166V340h180V512z"/>
<rect x="87" y="482" style="fill:#6B77E8;" width="156" height="30"/>
<path style="fill:#FFDB2D;" d="M512,370H0V0h512V370z"/>
<rect x="256" style="fill:#FFB64C;" width="256" height="370"/>
<path style="fill:#6B77E8;" d="M512,370H0V260h512V370z"/>
<rect x="256" y="260" style="fill:#3A4DE2;" width="256" height="110"/>
<path style="fill:#FFF5CB;" d="M512,512H226V122h286V512z"/>
<g>
	<path style="fill:#FF52A0;" d="M66.178,145.3l63.6-38.7v30.3l-22.2,14.25l22.2,13.05V196l-63.6-37.5V145.3z"/>
	<path style="fill:#FF52A0;" d="M148.677,145V82.45h28.5V145H148.677z M148.677,190v-27.6h28.5V190H148.677z"/>
	<path style="fill:#FF52A0;" d="M195.025,190v-27.6h23.1V190H195.025z"/>
</g>
<rect x="369" y="122" style="fill:#FFEC97;" width="143" height="390"/>
<g>
	<path style="fill:#6B77E8;" d="M266.762,290.16l33.92-20.64v16.16l-11.84,7.6l11.84,6.96v16.96l-33.92-20L266.762,290.16
		L266.762,290.16z"/>
	<path style="fill:#6B77E8;" d="M310.761,290v-33.36h15.2V290H310.761z M310.761,314v-14.72h15.2V314H310.761z"/>
	<path style="fill:#6B77E8;" d="M335.48,314v-14.72h12.32V314H335.48z"/>
</g>
<circle style="fill:#FFDBA9;" cx="369" cy="187" r="15"/>
<path style="fill:#FFC473;" d="M369,172v30c8.284,0,15-6.716,15-15S377.284,172,369,172z"/>
<path style="fill:#FF52A0;" d="M512,512H342V272h170V512z"/>
<rect x="427" y="272" style="fill:#FF318E;" width="85" height="240"/>
<circle style="fill:#FFDB2D;" cx="427" cy="447" r="15"/>
<path style="fill:#FFB64C;" d="M427,432v30c8.284,0,15-6.716,15-15S435.284,432,427,432z"/>
<g>
</g>
<g>
</g>
<g>
</g>
<g>
</g>
<g>
</g>
<g>
</g>
<g>
</g>
<g>
</g>
<g>
</g>
<g>
</g>
<g>
</g>
<g>
</g>
<g>
</g>
<g>
</g>
<g>
</g>
</svg>
