<?xml version="1.0"?>
<svg xmlns="http://www.w3.org/2000/svg" viewBox="0 0 512 512" width="512" height="512"><g id="Fill_out_line" data-name="Fill out line"><rect x="312" y="416" width="56" height="72" style="fill:#ad7d4d"/><rect x="432" y="248" width="48" height="56" style="fill:#379ec3"/><rect x="32" y="248" width="48" height="56" style="fill:#379ec3"/><rect x="72" y="264" width="48" height="192" rx="23.99998" ry="23.99998" style="fill:#2f4054"/><rect x="392" y="264" width="48" height="192" rx="23.99998" ry="23.99998" transform="translate(832 720) rotate(180)" style="fill:#2f4054"/><path d="M40,248v-8.00022C40,120.7064,136.7064,24,255.99978,24h.00044C375.2936,24,472,120.7064,472,239.99978V248H440v-8.00018A183.99981,183.99981,0,0,0,256.00018,56h-.00036A183.99981,183.99981,0,0,0,72,239.99982V248Z" style="fill:#8acce7"/><path d="M368,184V416H216v4a12,12,0,1,1-24,0v-4H180a36.003,36.003,0,0,0-36,36V220a36.003,36.003,0,0,1,36-36h12v4a12,12,0,1,0,24,0v-4Z" style="fill:#349966"/><path d="M342.54,477.46A35.92452,35.92452,0,0,0,368,488H216v-4a12,12,0,1,0-24,0v4H180a36,36,0,1,1,0-72h12v4a12,12,0,1,0,24,0v-4H368a35.96184,35.96184,0,0,0-35.77,32,34.90062,34.90062,0,0,0,0,8,35.65672,35.65672,0,0,0,5.83008,16A36.15551,36.15551,0,0,0,342.54,477.46Z" style="fill:#eedc9a"/><path d="M216,188V420a12,12,0,1,1-24,0V188a12,12,0,1,0,24,0Z" style="fill:#008051"/><path d="M40,288H72a0,0,0,0,1,0,0V432a0,0,0,0,1,0,0H40a16,16,0,0,1-16-16V304a16,16,0,0,1,16-16Z" style="fill:#8acce7"/><path d="M456,288h32a0,0,0,0,1,0,0V432a0,0,0,0,1,0,0H456a16,16,0,0,1-16-16V304A16,16,0,0,1,456,288Z" transform="translate(928 720) rotate(180)" style="fill:#8acce7"/><path d="M488,286.13086V248a8.00039,8.00039,0,0,0-8-8A223.99955,223.99955,0,0,0,97.6084,81.6084,222.52935,222.52935,0,0,0,32,240a8.00039,8.00039,0,0,0-8,8v38.13086A23.94343,23.94343,0,0,0,16,304V416a24.0275,24.0275,0,0,0,24,24H65.0127A32.00193,32.00193,0,0,0,128,432V288a32.01181,32.01181,0,0,0-40-30.9873V248a8.00039,8.00039,0,0,0-8-8c0-97.04688,78.95312-176,176-176s176,78.95312,176,176a8.00039,8.00039,0,0,0-8,8v9.0127A32.01181,32.01181,0,0,0,384,288V432a32.00193,32.00193,0,0,0,62.9873,8H472a24.0275,24.0275,0,0,0,24-24V304A23.94343,23.94343,0,0,0,488,286.13086ZM446.9873,280A31.95193,31.95193,0,0,0,440,266.86816V256h32v24ZM40,256H72v10.86816A31.95193,31.95193,0,0,0,65.0127,280H40ZM32,416V304a8.00917,8.00917,0,0,1,8-8H64V424H40A8.00917,8.00917,0,0,1,32,416Zm80-128V432a16,16,0,0,1-32,0V288a16,16,0,0,1,32,0ZM256,48C150.13086,48,64,134.13086,64,240H48C48,125.30859,141.30859,32,256,32s208,93.30859,208,208H448C448,134.13086,361.86914,48,256,48ZM432,432a16,16,0,0,1-32,0V288a16,16,0,0,1,32,0Zm48-16a8.00917,8.00917,0,0,1-8,8H448V296h24a8.00917,8.00917,0,0,1,8,8Z"/><path d="M368,176H216a7.9979,7.9979,0,0,0-8,8v4a4,4,0,0,1-8,0v-4a7.9979,7.9979,0,0,0-8-8H180a44.052,44.052,0,0,0-44,44V452a44.052,44.052,0,0,0,44,44h12a7.9979,7.9979,0,0,0,8-8v-4a4,4,0,0,1,8,0v4a7.9979,7.9979,0,0,0,8,8H368a7.9979,7.9979,0,0,0,8-8V184A7.9979,7.9979,0,0,0,368,176ZM200,207.58984a19.70966,19.70966,0,0,0,8,0V420a4,4,0,0,1-8,0ZM152,220a28.03083,28.03083,0,0,1,28-28h4V408h-4a43.81792,43.81792,0,0,0-28,10.08008ZM324.18994,448c-.12988,1.32007-.18994,2.6499-.18994,4s.06006,2.68994.18994,4H232v16h96.83008a43.12764,43.12764,0,0,0,5.25,8h-110.48a20.00512,20.00512,0,0,0-39.2002,0H180a28,28,0,0,1,0-56h4.3999a20.00512,20.00512,0,0,0,39.2002,0h110.49a43.224,43.224,0,0,0-5.27,8H232v16ZM360,478.83008a27.99633,27.99633,0,0,1,0-53.66016ZM360,408H224V192H360Z"/></g></svg>
