<svg id="_x31__x2C_5" enable-background="new 0 0 36 36" height="512" viewBox="0 0 36 36" width="512" xmlns="http://www.w3.org/2000/svg"><path d="m8.377 31.833c6.917 0 11.667 3.583 15 3.583s10.333-1.916 10.333-17.249-9.417-17.584-13.083-17.584c-17.167 0-24.5 31.25-12.25 31.25z" fill="#efefef"/><path d="m4.5 5c-.827 0-1.5-.673-1.5-1.5s.673-1.5 1.5-1.5 1.5.673 1.5 1.5-.673 1.5-1.5 1.5zm0-2c-.275 0-.5.225-.5.5s.225.5.5.5.5-.225.5-.5-.225-.5-.5-.5z" fill="#a4afc1"/><path d="m24.5 13.25h-15c-1.519 0-2.75-1.231-2.75-2.75 0-1.519 1.231-2.75 2.75-2.75h15c1.519 0 2.75 1.231 2.75 2.75 0 1.519-1.231 2.75-2.75 2.75z" fill="#f3f3f1"/><path d="m24.5 18.75h-15c-1.519 0-2.75-1.231-2.75-2.75 0-1.519 1.231-2.75 2.75-2.75h15c1.519 0 2.75 1.231 2.75 2.75 0 1.519-1.231 2.75-2.75 2.75z" fill="#2fdf84"/><path d="m24.5 24.25h-15c-1.519 0-2.75-1.231-2.75-2.75 0-1.519 1.231-2.75 2.75-2.75h15c1.519 0 2.75 1.231 2.75 2.75 0 1.519-1.231 2.75-2.75 2.75z" fill="#f3f3f1"/><path d="m24 29.25s5.25-2.321 5.25-6.964c0-1.857 0-3.929 0-3.929l-5.25-1.607-5.25 1.607v3.929c0 4.643 5.25 6.964 5.25 6.964z" fill="#2fdf84"/><path d="m21 22.286c0-2.786 0-3.929 0-3.929l4.125-1.263-1.125-.344-5.25 1.607v3.929c0 4.643 5.25 6.964 5.25 6.964s.471-.211 1.125-.623c-1.542-.971-4.125-3.082-4.125-6.341z" fill="#00b871"/><path d="m9 16c0-1.519 1.231-2.75 2.75-2.75h-2.25c-1.519 0-2.75 1.231-2.75 2.75s1.231 2.75 2.75 2.75h2.25c-1.519 0-2.75-1.231-2.75-2.75z" fill="#00b871"/><path d="m9 10.5c0-1.519 1.231-2.75 2.75-2.75h-2.25c-1.519 0-2.75 1.231-2.75 2.75s1.231 2.75 2.75 2.75h2.25c-1.519 0-2.75-1.231-2.75-2.75z" fill="#d5dbe1"/><path d="m9 21.5c0-1.519 1.231-2.75 2.75-2.75h-2.25c-1.519 0-2.75 1.231-2.75 2.75s1.231 2.75 2.75 2.75h2.25c-1.519 0-2.75-1.231-2.75-2.75z" fill="#d5dbe1"/><path d="m24.5 14h-15c-1.93 0-3.5-1.57-3.5-3.5s1.57-3.5 3.5-3.5h15c1.93 0 3.5 1.57 3.5 3.5s-1.57 3.5-3.5 3.5zm-15-5.5c-1.103 0-2 .897-2 2s.897 2 2 2h15c1.103 0 2-.897 2-2s-.897-2-2-2z"/><circle cx="11" cy="10.5" r="1"/><circle cx="15" cy="10.5" r="1"/><path d="m15.25 19.5h-5.75c-1.93 0-3.5-1.57-3.5-3.5 0-.929.377-1.831 1.034-2.476.635-.647 1.537-1.024 2.466-1.024h15c.974 0 1.901.407 2.546 1.116l-1.111 1.008c-.366-.402-.875-.624-1.435-.624h-15c-.536 0-1.035.208-1.405.585-.387.38-.595.879-.595 1.415 0 1.103.897 2 2 2h5.75z"/><circle cx="11" cy="16" r="1"/><circle cx="15" cy="16" r="1"/><path d="m15.25 25h-5.75c-1.93 0-3.5-1.57-3.5-3.5 0-.929.377-1.831 1.034-2.476.635-.647 1.537-1.024 2.466-1.024h5.25v1.5h-5.25c-.536 0-1.035.208-1.405.585-.387.38-.595.879-.595 1.415 0 1.103.897 2 2 2h5.75z"/><circle cx="11" cy="21.5" r="1"/><circle cx="15" cy="21.5" r="1"/><path d="m24 30c-.104 0-.207-.021-.304-.064-.232-.103-5.696-2.578-5.696-7.65v-3.929c0-.33.215-.621.53-.717l5.25-1.607c.143-.045.297-.045.439 0l5.25 1.607c.315.096.53.387.53.717v3.929c0 5.072-5.464 7.547-5.696 7.649-.096.044-.199.065-.303.065zm-4.5-11.088v3.374c0 3.494 3.442 5.571 4.499 6.127 1.056-.558 4.501-2.646 4.501-6.127v-3.374l-4.5-1.378z"/><path d="m23.5 25c-.199 0-.39-.079-.53-.22l-1.75-1.75 1.061-1.061 1.2 1.199 2.72-2.93 1.1 1.021-3.25 3.5c-.139.148-.332.235-.536.239-.006.002-.01.002-.015.002z"/></svg>