<svg id="line" enable-background="new 0 0 36 36" height="512" viewBox="0 0 36 36" width="512" xmlns="http://www.w3.org/2000/svg"><g><path d="m27.623 4.167c-6.917 0-11.667-3.583-15-3.583s-10.333 1.916-10.333 17.249 9.417 17.583 13.083 17.583c17.167.001 24.5-31.249 12.25-31.249z" fill="#efefef"/></g><g><g><path d="m9.625 3.25h1v2h-1z" fill="#a4afc1"/></g><g><path d="m6.125 6.25h2v1h-2z" fill="#a4afc1"/></g><g><path d="m11.875 6.25h2v1h-2z" fill="#a4afc1"/></g></g><g><path d="m6.75 22.75v2.5c0 .552.448 1 1 1h8.48s-.23 1.75-1.48 3h6.48c-1.235-1.235-1.48-3-1.48-3h8.5c.552 0 1-.448 1-1v-2.5z" fill="#2fdf84"/></g><g><path d="m29.25 22.75h-22.5v-11.25c0-.552.448-1 1-1h20.5c.552 0 1 .448 1 1z" fill="#f3f3f1"/></g><g><path d="m10 10.5h-2.25c-.552 0-1 .448-1 1v11.25h2.25v-11.25c0-.552.448-1 1-1z" fill="#d5dbe1"/></g><g><path d="m9 25.25v-2.5h-2.25v2.5c0 .552.448 1 1 1h2.25c-.552 0-1-.448-1-1z" fill="#00b871"/></g><g><path d="m16.23 26.25s-.23 1.75-1.48 3h2.25c1.25-1.25 1.48-3 1.48-3z" fill="#00b871"/></g><g><path d="m14.238 20.819-.977-1.139 3.5-3c.256-.219.625-.241.904-.055l.988.659 3.065-3.065 1.061 1.061-3.5 3.5c-.252.252-.648.293-.946.094l-1.027-.685z"/></g><g><path d="m23 18h-1.5v-2.5h-2.5v-1.5h3.25c.414 0 .75.336.75.75z"/></g><g><path d="m28.25 27h-20.5c-.965 0-1.75-.785-1.75-1.75v-13.5c0-.965.785-1.75 1.75-1.75h20.5c.965 0 1.75.785 1.75 1.75v13.5c0 .965-.785 1.75-1.75 1.75zm-20.5-15.5c-.138 0-.25.112-.25.25v13.5c0 .138.112.25.25.25h20.5c.138 0 .25-.112.25-.25v-13.5c0-.138-.112-.25-.25-.25z"/></g><g><path d="m6.75 22h22.5v1.5h-22.5z"/></g><g><path d="m21.25 30h-6.5c-.303 0-.577-.183-.693-.463s-.052-.603.163-.817c1.041-1.041 1.265-2.552 1.267-2.567l1.487.195c-.008.059-.147 1.066-.744 2.152h3.523c-.591-1.081-.738-2.088-.746-2.147l1.485-.208c.002.015.221 1.458 1.184 2.489.196.135.324.36.324.616 0 .414-.336.75-.75.75z"/></g><g><path d="m2 28.5h32v1.5h-32z"/></g></svg>